<svg aria-hidden="true" style="position: absolute; width: 0; height: 0; overflow: hidden;" version="1.1" xmlns="http://www.w3.org/2000/svg" xmlns:xlink="http://www.w3.org/1999/xlink">
<defs>
<symbol id="icon-logo" viewBox="0 0 31 32">
<path fill="#7c5cfc" style="fill: var(--color1, #7c5cfc)" d="M20.687 10.829h-10.343v10.344h10.343v-10.344z"></path>
<path fill="#7c5cfc" style="fill: var(--color1, #7c5cfc)" opacity="0.4" d="M6.465 28.929c2.133 0 3.879-1.745 3.879-3.879v-3.879h-3.879c-2.133 0-3.879 1.745-3.879 3.879s1.745 3.879 3.879 3.879zM6.465 10.829h3.879v-3.879c0-2.133-1.745-3.879-3.879-3.879s-3.879 1.745-3.879 3.879 1.745 3.879 3.879 3.879zM20.687 10.829h3.879c2.133 0 3.879-1.745 3.879-3.879s-1.745-3.879-3.879-3.879-3.879 1.745-3.879 3.879v3.879zM24.565 28.929c2.133 0 3.879-1.745 3.879-3.879s-1.745-3.879-3.879-3.879h-3.879v3.879c0 2.133 1.745 3.879 3.879 3.879z"></path>
</symbol>
<symbol id="icon-search" viewBox="0 0 32 32">
<path fill="none" stroke="#3d5278" style="stroke: var(--color1, #3d5278)" stroke-linejoin="round" stroke-linecap="round" stroke-miterlimit="4" stroke-width="2" d="M15.333 28c6.996 0 12.667-5.671 12.667-12.667s-5.671-12.667-12.667-12.667v0c-6.996 0-12.667 5.671-12.667 12.667s5.671 12.667 12.667 12.667v0zM29.333 29.333l-2.667-2.667"></path>
</symbol>
<symbol id="icon-filter" viewBox="0 0 32 32">
<path fill="none" stroke="#3d5278" style="stroke: var(--color1, #3d5278)" stroke-linejoin="round" stroke-linecap="round" stroke-miterlimit="10" stroke-width="2" d="M29.333 8.667h-8M8 8.667h-5.333M13.333 13.333c2.577 0 4.667-2.089 4.667-4.667s-2.089-4.667-4.667-4.667v0c-2.577 0-4.667 2.089-4.667 4.667s2.089 4.667 4.667 4.667v0zM29.333 23.333h-5.333M10.667 23.333h-8M18.667 28c2.577 0 4.667-2.089 4.667-4.667s-2.089-4.667-4.667-4.667v0c-2.577 0-4.667 2.089-4.667 4.667s2.089 4.667 4.667 4.667v0z"></path>
</symbol>
<symbol id="icon-heart" viewBox="0 0 32 32">
<path fill="#3d5278" style="fill: var(--color1, #3d5278)" d="M21.92 4.133c-2.413 0-4.573 1.173-5.92 2.973-1.362-1.811-3.505-2.97-5.919-2.973h-0.001c-4.093 0-7.413 3.333-7.413 7.453 0 1.587 0.253 3.053 0.693 4.413 2.107 6.667 8.6 10.653 11.813 11.747 0.453 0.16 1.2 0.16 1.653 0 3.213-1.093 9.707-5.080 11.813-11.747 0.44-1.36 0.693-2.827 0.693-4.413 0-4.12-3.32-7.453-7.413-7.453z"></path>
</symbol>
<symbol id="icon-notification" viewBox="0 0 32 32">
<path fill="#3d5278" style="fill: var(--color1, #3d5278)" d="M25.787 19.32l-1.333-2.213c-0.28-0.493-0.533-1.427-0.533-1.973v-3.373c-0.003-3.118-1.817-5.811-4.446-7.086l-0.047-0.021c-0.682-1.195-1.948-1.987-3.399-1.987-0.014 0-0.029 0-0.043 0l0.002-0c-1.453 0-2.76 0.787-3.453 2.027-2.6 1.293-4.4 3.973-4.4 7.067v3.373c0 0.547-0.253 1.48-0.533 1.96l-1.347 2.227c-0.533 0.893-0.653 1.88-0.32 2.787 0.32 0.893 1.080 1.587 2.067 1.92 2.587 0.88 5.307 1.307 8.027 1.307s5.44-0.427 8.027-1.293c0.933-0.307 1.653-1.013 2-1.933s0.253-1.933-0.267-2.787zM19.773 26.68c-0.575 1.559-2.046 2.651-3.773 2.653h-0c-1.053 0-2.093-0.427-2.827-1.187-0.427-0.4-0.747-0.933-0.933-1.48 0.173 0.027 0.347 0.040 0.533 0.067 0.307 0.040 0.627 0.080 0.947 0.107 0.76 0.067 1.533 0.107 2.307 0.107 0.76 0 1.52-0.040 2.267-0.107 0.28-0.027 0.56-0.040 0.827-0.080l0.653-0.080z"></path>
</symbol>
<symbol id="icon-setting" viewBox="0 0 32 32">
<path fill="#3d5278" style="fill: var(--color1, #3d5278)" d="M26.8 12.293c-2.413 0-3.4-1.707-2.2-3.8 0.693-1.213 0.28-2.76-0.933-3.453l-2.307-1.32c-1.053-0.627-2.413-0.253-3.040 0.8l-0.147 0.253c-1.2 2.093-3.173 2.093-4.387 0l-0.147-0.253c-0.384-0.664-1.091-1.104-1.901-1.104-0.41 0-0.794 0.113-1.123 0.31l0.010-0.006-2.307 1.32c-1.213 0.693-1.627 2.253-0.933 3.467 1.213 2.080 0.227 3.787-2.187 3.787-1.387 0-2.533 1.133-2.533 2.533v2.347c0 1.387 1.133 2.533 2.533 2.533 2.413 0 3.4 1.707 2.187 3.8-0.693 1.213-0.28 2.76 0.933 3.453l2.307 1.32c1.053 0.627 2.413 0.253 3.040-0.8l0.147-0.253c1.2-2.093 3.173-2.093 4.387 0l0.147 0.253c0.627 1.053 1.987 1.427 3.040 0.8l2.307-1.32c1.213-0.693 1.627-2.253 0.933-3.453-1.213-2.093-0.227-3.8 2.187-3.8 1.387 0 2.533-1.133 2.533-2.533v-2.347c-0.015-1.398-1.148-2.526-2.546-2.533h-0.001zM16 20.333c-2.387 0-4.333-1.947-4.333-4.333s1.947-4.333 4.333-4.333 4.333 1.947 4.333 4.333-1.947 4.333-4.333 4.333z"></path>
</symbol>
<symbol id="icon-Vector" viewBox="0 0 32 32">
<path fill="#3563e9" style="fill: var(--color1, #3563e9)" d="M22.704 0h-13.408c-5.824 0-9.296 3.472-9.296 9.296v13.392c0 5.84 3.472 9.312 9.296 9.312h13.392c5.824 0 9.296-3.472 9.296-9.296v-13.408c0.016-5.824-3.456-9.296-9.28-9.296zM23.648 12.32l-9.072 9.072c-0.217 0.217-0.517 0.351-0.848 0.351s-0.631-0.134-0.848-0.351v0l-4.528-4.528c-0.215-0.218-0.348-0.517-0.348-0.848s0.133-0.63 0.348-0.848l-0 0c0.464-0.464 1.232-0.464 1.696 0l3.68 3.68 8.224-8.224c0.464-0.464 1.232-0.464 1.696 0s0.464 1.216 0 1.696z"></path>
</symbol>
<symbol id="icon-Layer-fill" viewBox="0 0 36 32">
<path fill="#fbad39" style="fill: var(--color1, #fbad39)" d="M16.334 1.318c0.238-0.735 0.916-1.257 1.716-1.257s1.478 0.522 1.712 1.244l0.004 0.013 3.1 9.532h10c0.022-0.001 0.048-0.002 0.074-0.002 1.003 0 1.816 0.813 1.816 1.816 0 0.633-0.324 1.19-0.815 1.515l-0.007 0.004-8.118 5.884 3.1 9.55c0.059 0.171 0.094 0.368 0.094 0.573 0 0.994-0.806 1.8-1.8 1.8-0.405 0-0.779-0.134-1.080-0.36l0.005 0.003-8.134-5.95-8.116 5.9c-0.297 0.224-0.672 0.359-1.078 0.359-0.994 0-1.8-0.806-1.8-1.8 0-0.206 0.035-0.403 0.098-0.587l-0.004 0.013 3.1-9.55-8.116-5.884c-0.498-0.329-0.821-0.887-0.821-1.519 0-1.003 0.813-1.816 1.816-1.816 0.025 0 0.050 0.001 0.075 0.002l-0.004-0h10l3.184-9.48z"></path>
</symbol>
<symbol id="icon-Layer-nofill" viewBox="0 0 36 32">
<path fill="none" stroke="#c3d4e9" style="stroke: var(--color2, #c3d4e9)" stroke-linejoin="round" stroke-linecap="round" stroke-miterlimit="4" stroke-width="2.6667" d="M16.297 2.949c0.211-0.653 0.814-1.117 1.525-1.117s1.314 0.464 1.522 1.106l0.003 0.011 2.756 8.473h8.889c0.020-0.001 0.042-0.001 0.065-0.001 0.892 0 1.614 0.723 1.614 1.614 0 0.563-0.288 1.058-0.724 1.347l-0.006 0.004-7.216 5.23 2.756 8.489c0.053 0.152 0.083 0.327 0.083 0.509 0 0.884-0.716 1.6-1.6 1.6-0.36 0-0.693-0.119-0.96-0.32l0.004 0.003-7.23-5.289-7.214 5.244c-0.264 0.199-0.597 0.319-0.958 0.319-0.884 0-1.6-0.716-1.6-1.6 0-0.183 0.031-0.358 0.087-0.522l-0.003 0.011 2.756-8.489-7.214-5.23c-0.442-0.293-0.73-0.788-0.73-1.351 0-0.892 0.723-1.614 1.614-1.614 0.022 0 0.045 0 0.067 0.001l-0.003-0h8.889l2.83-8.427z"></path>
</symbol>
<symbol id="icon-like" viewBox="0 0 32 32">
<path fill="#ed3f3f" style="fill: var(--color1, #ed3f3f)" d="M21.92 4.133c-2.413 0-4.573 1.173-5.92 2.973-1.362-1.811-3.505-2.97-5.919-2.973h-0.001c-4.093 0-7.413 3.333-7.413 7.453 0 1.587 0.253 3.053 0.693 4.413 2.107 6.667 8.6 10.653 11.813 11.747 0.453 0.16 1.2 0.16 1.653 0 3.213-1.093 9.707-5.080 11.813-11.747 0.44-1.36 0.693-2.827 0.693-4.413 0-4.12-3.32-7.453-7.413-7.453z"></path>
</symbol>
<symbol id="icon-arrow-down" viewBox="0 0 32 32">
<path fill="#39485e" style="fill: var(--color1, #39485e); stroke: var(--color1, #39485e)" stroke="#39485e" stroke-linejoin="miter" stroke-linecap="butt" stroke-miterlimit="4" stroke-width="1" d="M16 22.4c-0.932 0-1.866-0.36-2.572-1.068l-8.694-8.692c-0.179-0.181-0.289-0.431-0.289-0.706s0.11-0.524 0.289-0.706l-0 0c0.182-0.179 0.431-0.29 0.707-0.29s0.525 0.111 0.707 0.29l8.692 8.69c0.64 0.64 1.68 0.64 2.32 0l8.694-8.692c0.182-0.179 0.431-0.29 0.707-0.29s0.525 0.111 0.707 0.29l-0-0c0.179 0.181 0.289 0.431 0.289 0.706s-0.11 0.524-0.289 0.706l-8.694 8.694c-0.706 0.706-1.64 1.066-2.574 1.066z"></path>
</symbol>
<symbol id="icon-gas" viewBox="0 0 32 32">
<path fill="#39485e" style="fill: var(--color1, #39485e)" d="M29.787 12.44l-2.667-1.333c-0.493-0.24-1.107-0.053-1.347 0.44-0.253 0.507-0.053 1.107 0.44 1.347l2.12 1.053v6.387l-5 0.013v-13.68c0-2.667-1.787-4-4-4h-10.667c-2.213 0-4 1.333-4 4v21.667h-2c-0.547 0-1 0.453-1 1s0.453 1 1 1h22.667c0.547 0 1-0.453 1-1s-0.453-1-1-1h-2v-5.987l6-0.013c0.56 0 1-0.453 1-1v-8c0-0.373-0.213-0.72-0.547-0.893zM8 9.187c0-1.853 1.133-2.52 2.52-2.52h6.973c1.373 0 2.507 0.667 2.507 2.52v1.64c0 1.84-1.133 2.507-2.52 2.507h-6.96c-1.387 0-2.52-0.667-2.52-2.52v-1.627zM8.667 16.333h4c0.547 0 1 0.453 1 1s-0.453 1-1 1h-4c-0.547 0-1-0.453-1-1s0.453-1 1-1z"></path>
</symbol>
<symbol id="icon-people" viewBox="0 0 32 32">
<path fill="#39485e" style="fill: var(--color1, #39485e)" d="M12 2.667c-3.493 0-6.333 2.84-6.333 6.333 0 3.427 2.68 6.2 6.173 6.32 0.107-0.013 0.213-0.013 0.293 0 0.027 0 0.040 0 0.067 0 0.013 0 0.013 0 0.027 0 3.413-0.12 6.093-2.893 6.107-6.32 0-3.493-2.84-6.333-6.333-6.333z"></path>
<path fill="#39485e" style="fill: var(--color1, #39485e)" d="M18.773 18.867c-3.72-2.48-9.787-2.48-13.533 0-1.693 1.133-2.627 2.667-2.627 4.307s0.933 3.16 2.613 4.28c1.867 1.253 4.32 1.88 6.773 1.88s4.907-0.627 6.773-1.88c1.68-1.133 2.613-2.653 2.613-4.307-0.013-1.64-0.933-3.16-2.613-4.28z"></path>
<path fill="#39485e" style="fill: var(--color1, #39485e)" d="M26.653 9.787c0.213 2.587-1.627 4.853-4.173 5.16-0.013 0-0.013 0-0.027 0h-0.040c-0.080 0-0.16 0-0.227 0.027-1.293 0.067-2.48-0.347-3.373-1.107 1.373-1.227 2.16-3.067 2-5.067-0.093-1.080-0.467-2.067-1.027-2.907 0.507-0.253 1.093-0.413 1.693-0.467 2.613-0.227 4.947 1.72 5.173 4.36z"></path>
<path fill="#39485e" style="fill: var(--color1, #39485e)" d="M29.32 22.121c-0.107 1.293-0.933 2.413-2.32 3.173-1.333 0.733-3.013 1.080-4.68 1.040 0.96-0.867 1.52-1.947 1.627-3.093 0.133-1.653-0.653-3.24-2.227-4.507-0.893-0.707-1.933-1.267-3.067-1.68 2.947-0.853 6.653-0.28 8.933 1.56 1.227 0.987 1.853 2.227 1.733 3.507z"></path>
</symbol>
<symbol id="icon-Car" viewBox="0 0 32 32">
<path fill="#39485e" style="fill: var(--color1, #39485e)" d="M16 2.667c-7.36 0-13.333 5.973-13.333 13.333s5.973 13.333 13.333 13.333c7.36 0 13.333-5.973 13.333-13.333s-5.96-13.333-13.333-13.333z"></path>
<path fill="#fff" style="fill: var(--color2, #fff)" d="M16 5.333c5.891 0 10.667 4.776 10.667 10.667s-4.776 10.667-10.667 10.667c-5.891 0-10.667-4.776-10.667-10.667s4.776-10.667 10.667-10.667z"></path>
<path fill="#39485e" style="fill: var(--color1, #39485e)" d="M16 8c-4.416 0-8 3.584-8 8s3.584 8 8 8c4.416 0 8-3.584 8-8s-3.576-8-8-8z"></path>
<path fill="#fff" style="fill: var(--color2, #fff)" d="M16 10.667c2.946 0 5.333 2.388 5.333 5.333s-2.388 5.333-5.333 5.333c-2.946 0-5.333-2.388-5.333-5.333s2.388-5.333 5.333-5.333z"></path>
<path fill="#39485e" style="fill: var(--color1, #39485e)" d="M14.667 22.667h2.667v5.333h-2.667v-5.333z"></path>
<path fill="#39485e" style="fill: var(--color1, #39485e)" d="M22.667 14.667h5.333v2.667h-5.333v-2.667z"></path>
<path fill="#39485e" style="fill: var(--color1, #39485e)" d="M4 14.667h5.333v2.667h-5.333v-2.667z"></path>
</symbol>
<symbol id="icon-nofill-heart" viewBox="0 0 32 32">
<path fill="none" stroke="#39485e" style="stroke: var(--color1, #39485e)" stroke-linejoin="round" stroke-linecap="round" stroke-miterlimit="4" stroke-width="2" d="M16.827 27.746c-0.453 0.16-1.2 0.16-1.653 0-3.867-1.32-12.507-6.827-12.507-16.16 0-4.12 3.32-7.453 7.413-7.453 2.427 0 4.573 1.173 5.92 2.987 1.347-1.813 3.507-2.987 5.92-2.987 4.093 0 7.413 3.333 7.413 7.453 0 9.333-8.64 14.84-12.507 16.16z"></path>
</symbol>
<symbol id="icon-menu" viewBox="0 0 32 32">
<path fill="none" stroke="#3d5278" style="stroke: var(--color1, #3d5278)" stroke-linejoin="miter" stroke-linecap="round" stroke-miterlimit="4" stroke-width="2" d="M4 9.333h24"></path>
<path fill="none" stroke="#3d5278" style="stroke: var(--color1, #3d5278)" stroke-linejoin="miter" stroke-linecap="round" stroke-miterlimit="4" stroke-width="2" d="M4 16h24"></path>
<path fill="none" stroke="#3d5278" style="stroke: var(--color1, #3d5278)" stroke-linejoin="miter" stroke-linecap="round" stroke-miterlimit="4" stroke-width="2" d="M4 22.667h24"></path>
</symbol>
</defs>
</svg>
